<?xml version="1.0" standalone="yes"?>
<svg xmlns="http://www.w3.org/2000/svg" width="512" height="512">
<path style="fill:#01a9f3; stroke:none;" d="M0 0L0 366L0 512L512 512L512 0L146 0L0 0z"/>
<path style="fill:#feffff; stroke:none;" d="M254 38.3889L253 38.6389L251 39.1667L250 39.4445L248 40.2778L246 41.4722L244 43.0555L243 43.9445L241 45.6111L240 46.3889L238 48.0555L237 48.9445L235 50.6111L234 51.3889L232 53.0833L231 54.0278L229 55.9167L227 57.6111L226 58.3611L224 59.8611L223 60.6389L222 61.3889L220 63.0555L219 63.9445L217 65.6111L215 67.2222L214 68.0833L212 70L210 71.9167L208 73.6111L207 74.3889L205 76.0555L204 76.9445L202 78.6111L200 80.1389L199 80.8611L198 81.6389L196 83.2222L195 84.0833L193 85.9722L192 86.9167L190 88.6111L188 90.2222L187 91.0833L185 92.9167L184 93.7778L182 95.3889L181 96.2222L179 97.9445L177 99.6111L176 100.389L174 102.056L173 102.944L172 103.778L171 104.611L169 106.222L168 107.083L166 108.917L165 109.778L163 111.389L161 113.056L160 113.944L158 115.611L157 116.389L155 118.056L154 118.944L152 120.611L151 121.389L149 123.056L148 123.944L146 125.611L144 127.222L143 128.083L141 129.917L140 130.778L138 132.389L136 134.056L135 134.944L133 136.611L132 137.389L130 139.056L129 139.944L127 141.611L126 142.389L124 144.056L123 144.944L121 146.611L119 148.222L118 149.083L116 150.917L115 151.778L113 153.389L111 155.056L110 155.944L108 157.611L107 158.389L105 160.056L104 160.944L102 162.611L101 163.389L99 165.056L98 165.944L96 167.611L94 169.222L93 170.083L91 171.917L90 172.778L88 174.389L87 175.222L86 176.083L84.1111 178L83.3333 179L82.7222 180L82.3333 181L82 183L81.7778 185L81.3889 187L81.25 188L81.1667 189L81.3889 191L81.8056 193L82.1944 195L82.4167 196L82.7222 197L83.6389 199L84.3056 200L85.1111 201L87 203L89 204.917L91 206.5L93 207.5L95 207.917L97 208L98 208L100 208L102 208L103 207.972L104 207.917L106 207.583L108 206.917L109 206.444L110 205.917L112 204.667C113.02 204.001 114.019 203.305 115 202.583L116 201.778L118 200L119 199.083L121 197.389L123 195.778L124 194.917L126 193.083L127 192.222L129 190.611L131 188.917L133 187.083L134 186.222L136 184.611L137 183.778L138 182.944L139 182.056L141 180.389L142 179.611L144 177.944L146 176.222L147 175.389L149 173.778L150 172.917L152 171.083L153 170.222L154 169.389L156 167.778L157 166.917L159 165.083L160 164.222L162 162.611L164 160.917L166 159.083L167 158.222L169 156.611L170 155.778L171 154.917L173 153.083L174 152.222L176 150.611L178 148.944L179 148.056L181 146.389L183 144.778L184 143.917L186 142.083L187 141.222L189 139.611L191 137.917L193 136.083L194 135.222L196 133.611L198 131.944L199 131.056L201 129.389L203 127.778L204 126.917L206 125.083L208 123.389L209 122.611L211 120.944L212 120.056L214 118.389L215 117.611L217 115.917L218 115L220 113.222L222 111.611L224 109.944L225 109.056L227 107.389L228 106.611L230 104.944L231 104.056L232 103.222L233 102.389L235 100.778L236 99.9167L238 98.0833L240 96.3889L242 94.7778L243 93.9167L245 92.0833L247 90.3889L249 88.7778L250 87.9167L252 86.1111L254 84.8333L255 84.6667L256 84.8333L257 85.3611L259 86.9445L261 88.6111L262 89.3889L264 91.0833L266 92.9167L268 94.6111L270 96.2222L271 97.0833L273 98.9167L274 99.7778L276 101.389L278 103.056L279 103.944L281 105.611L282 106.389L284 108.056L285 108.944L287 110.611L288 111.389L290 113.083L292 114.917L293 115.778L295 117.389L297 119.056L298 119.944L300 121.611L302 123.222L303 124.083L305 125.917L307 127.611L309 129.222L310 130.083L312 131.917L313 132.778L315 134.389L316 135.222L317 136.083L319 137.917L320 138.778L322 140.389L324 142.056L325 142.944L327 144.611L329 146.222L330 147.083L332 148.917L334 150.611L336 152.222L337 153.083L339 154.917L340 155.778L342 157.389L343 158.222L344 159.083L346 160.917L347 161.778L349 163.389L350 164.222L351 165.083L353 166.917L354 167.778L356 169.389L358 171.083L359 172.028L361 173.917L363 175.611L364 176.389L366 178.083L367 179L368 179.917L370 181.611L372 183.222L373 184.083L375 185.917L377 187.611L379 189.222L380 190.083L382 191.917L383 192.778L385 194.389L387 196.083L389 197.917L390 198.778L392 200.389L394 202.083L396 203.972L397 204.889L398 205.694L400 206.889L401 207.278L402 207.583L404 207.917L406 208L407 208L409 208L411 208L413 207.972L414 207.917L416 207.583L418 206.889L419 206.389L421 205.111L421.972 204.361L423.778 202.778L424.583 201.917L425.917 200L426.917 198L427.583 196L427.917 194L428 192L428 191L428 190L428 188L428 186L428 185L427.917 183L427.583 181L426.889 179.083L425.694 177.389L424.889 176.639L423 175.139L421 173.611L420 172.778L419 171.917L417 170.083L416 169.222L414 167.611L412 165.944L411 165.056L409 163.389L408 162.611L406 160.917L404 159.083L403 158.222L402 157.389L400 155.778L399 154.917L397 153.083L396 152.222L394 150.611L393 149.778L392 148.917L390 147.083L389 146.222L387 144.611L385 142.944L384 142.056L382 140.389L380 138.778L379 137.917L377 136.083L376 135.222L375 134.389L373 132.778L372 131.917L370 130.083L369 129.222L367 127.611L365 125.917L363 124.083L362 123.222L360 121.611L358 119.944L357 119.056L355 117.389L353 115.778L352 114.917L350 113.083L349 112.222L348 111.389L346 109.778L345 108.917L343 107.083L342 106.222L340 104.611L338 102.917L336 101.083L335 100.222L333 98.6111L331 96.9445L330 96.0555L328 94.3889L326 92.7778L325 91.9167L323 90.0833L321 88.3889L319 86.7778L318 85.9167L316 84.0833L315 83.2222L313 81.6111L312 80.7778L311 79.9167L309 78.0833L308 77.2222L306 75.6111L304 73.9445L303 73.0555L301 71.3889L299 69.7778L298 68.9167L296 67.0833L295 66.2222L294 65.3889L292 63.7778L291 62.9167L289 61.0833L288 60.2222L286 58.6111L284 56.9167L282 55.0833L281 54.2222L279 52.6111L277 50.9445L276 50.0555L274 48.3889L272 46.7778L270 45L269 44.0833L267 42.3889L265 40.8889L263 39.6111L262 39.1111L261 38.7222L260 38.4167L258 38.0833L257 38.0555L256 38.0833L254 38.3889M145 111L146.5 110.722L148.056 110.056L149 109.528L150 108.833L152 107.361L153 106.611L155 104.917L157 103.083L159 101.389L160 100.611L162 98.9445L163 98.0555L165 96.3889L166 95.6111L168 93.9445L170 92.2222L171 91.3889L173 89.7778L175 88.0555L177 86.3889L179 84.7778L180 83.9167L182 82.0833L183 81.2222L185 79.6111L186 78.7778L188 77.0555L190 75.3889L191 74.6111L193 72.9445L194 72.0555L195 71.2222L196 70.3889L198 68.7778L199.972 67.0555L201.778 65.3889L202.611 64.6111L204.111 62.9167L205.306 61L205.889 59L205.917 57L205.5 55L204.5 53L202.917 51.1111L201 49.7222L199 49.1111L197 49L196 49L194 49L186 49L161 49L155 49L153 49L152 49L150 49.0278L149 49.1111L148 49.3333L147.028 49.7222L146.111 50.3333L144.722 52.0278L144.111 54L144.028 55L144 57L144 59L144 64L144 95L144 101L144 103L144 104L144 106L144.028 107L144.056 107.944L144.25 108.944L144.278 109.5L145 111M254 98L252.5 99.4167L251.944 99.8333L250.944 100.667L250 101.389L248 103.083L247 104L245 105.778L243 107.389L241 109.056L240 109.944L238 111.611L236 113.222L235 114.083L233 115.917L231 117.611L230 118.389L228 120.056L227 120.944L225 122.611L224 123.389L222 125.056L221 125.944L219 127.611L217 129.222L216 130.083L214 131.917L213 132.778L211 134.389L209 136.083L207 137.917L206 138.778L204 140.389L202 142.056L201 142.944L199 144.611L197 146.222L196 147.083L194 148.917L193 149.778L191 151.389L189 153.056L188 153.944L186 155.611L185 156.389L183 158.056L182 158.944L181 159.778L180 160.611L178 162.222L177 163.083L175 164.917L174 165.778L172 167.389L170 169.056L169 169.944L167 171.611L165 173.222L164 174.083L162 175.917L161 176.778L159 178.389L157 180.056L156 180.944L154 182.611L152 184.222L151 185.083L149 186.917L148 187.778L146 189.389L144 191.056L143 191.944L141 193.611L139 195.222L138 196.083L136 197.917L135 198.778L133 200.389L131 202.056L130 202.944L129 203.778L127.083 205.389L125.417 207.083L124.111 209L123.306 211L123.111 212L123.028 213L123 215L123 217L123 220L123 244L123 331L123 357L123 360L123 361L123 362L123.111 364L123.333 365L124.333 366.889L125.111 367.667L127 368.667L128 368.889L130 369L131 369L133 369L150 369L218 369L219 368L219 295L219 271L219 269L219 267L219.083 265L219.333 263.056L219.361 262.056L219.472 261.5L219 260L220.5 259.722L222.056 259.167L223 258.833L224 258.472L226 258.083L228 258L229 258L231 258L240 258L267 258L279 258L282 258L283 258L284 257.972L284.944 257.944L285.944 257.75L286.5 257.722L288 257L288.333 258.5L288.639 259.056L289.083 260.056L289.611 261L290.5 263L290.75 264L290.972 266L291 267L291 269L291 271L291 276L291 300L291 368L292 369L360 369L371 369L375 369L377 369L379 369L381 368.917L382 368.75L383.972 368.056L384.889 367.5L386.278 365.917L386.889 364L387 362L387 361L387 360L387 357L387 331L387 244L387 220L387 217L387 215L386.972 213L386.889 212L386.694 211L385.889 209.028L384.583 207.222L383.778 206.389L381.972 204.778L381 203.944L380 203.056L378 201.389L377 200.611L375 198.917L374 198L372 196.222L370 194.611L368 192.944L367 192.056L365 190.389L364 189.611L362 187.944L361 187.056L360 186.222L359 185.389L357 183.778L356 182.917L354 181.083L353 180.222L351 178.611L349 176.944L348 176.056L346 174.389L345 173.611L343 171.944L341 170.222L339 168.611L337 166.917L335 165.083L334 164.222L332 162.611L330 160.944L329 160.056L327 158.389L325 156.778L324 155.917L322 154.083L321 153.222L319 151.611L317 149.944L316 149.056L314 147.389L313 146.611L311 144.944L310 144.056L308 142.389L307 141.611L305 139.944L304 139.056L302 137.389L300 135.778L299 134.917L297 133.083L296 132.222L294 130.611L292 128.944L291 128.056L289 126.389L287 124.778L286 123.917L284 122.083L283 121.222L281 119.611L279 117.944L278 117.056L276 115.389L274 113.778L273 112.917L271 111.083L270 110.222L268 108.611L266 106.917L265 105.972L263 104.083L261 102.389L259.056 100.833L257.5 99.4722L256 98L254 98M132 386L131 387L131 457L132 458L142 458L143 457L143 428L179 428L179 457L180 458L190 458L191 457L191 387L190 386L180 386L179 387L179 416L143 416L143 387L142 386L132 386M78 398L77 399L77 409L78 410L107 410L107 421L108 422L118 422L119 421L119 410L124 410L125 409L125 399L124 398L78 398M408 398L407 399L407 409L408 410L436 410L437 409L437 399L436 398L408 398M210 404L209 405L209 416L198 416L197 417L197 445L198 446L209 446L209 457L210 458L232 458L233 457L233 446L244 446L245 445L245 417L244 416L233 416L233 405L232 404L210 404M252 404L251 405L251 457L252 458L262 458L263 457L263 416L286 416L287 415L287 405L286 404L252 404M300 404L299 405L299 415L300 416L322 416L323 415L323 405L322 404L300 404M354 404L353 405L353 416L342 416L341 417L341 445L342 446L352 446L353 445L353 434L376 434L377 433L377 428L388 428L389 427L389 405L388 404L354 404M396 410L395 411L395 421L396 422L406 422L407 421L407 411L406 410L396 410z"/>
<path style="fill:#010101; stroke:none;" d="M209 416L210 417L209 416M232 416L233 417L232 416z"/>
<path style="fill:#feffff; stroke:none;" d="M288 416L287 417L287 457L288 458L298 458L299 457L299 417L298 416L288 416M324 416L323 417L323 457L324 458L334 458L335 457L335 417L334 416L324 416z"/>
<path style="fill:#01a9f3; stroke:none;" d="M353 416L353.583 418L353.778 419L353.917 419.5L354 421L376 421L376 417L364 417L361 417L360 417L359 417L357 416.917L356.056 416.778L355.056 416.583L353 416M210 417L210 445L232 445L232 417L210 417z"/>
<path style="fill:#feffff; stroke:none;" d="M96 422L95 423L95 433L96 434L106 434L107 433L107 423L106 422L96 422M408 422L407 423L407 433L408 434L424 434L425 433L425 423L424 422L408 422M84 434L83 435L83 446L78 446L77 447L77 457L78 458L124 458L125 457L125 447L124 446L95 446L95 435L94 434L84 434M426 434L425 435L425 445L426 446L436 446L437 445L437 435L436 434L426 434M378 440L377 441L377 446L354 446L353 447L353 457L354 458L388 458L389 457L389 441L388 440L378 440z"/>
<path style="fill:#010101; stroke:none;" d="M209 445L210 446L209 445M232 445L233 446L232 445z"/>
<path style="fill:#feffff; stroke:none;" d="M396 446L395 447L395 457L396 458L424 458L425 457L425 447L424 446L396 446z"/>
</svg>
